<svg width="280" height="155" viewBox="0 0 280 155" fill="none" xmlns="http://www.w3.org/2000/svg">
<path d="M167.243 124.608C169.264 129.762 170.828 133.789 171.936 136.688C171.219 137.977 170.307 139.072 169.199 139.974C168.091 140.812 166.787 141.553 165.288 142.197C163.854 142.841 162.192 143.421 160.302 143.936C158.412 144.452 156.326 145 154.045 145.579V153.504H212.314V145.579L196.084 140.264L197.16 139.877C190.772 124.221 185.135 110.498 180.246 98.7071C175.423 86.8521 171.187 76.5434 167.537 67.781C163.887 59.0186 160.758 51.6092 158.151 45.5529C155.609 39.4965 153.426 34.3744 151.601 30.1865C149.776 25.9986 148.244 22.5516 147.006 19.8456C145.767 17.0751 144.692 14.6912 143.779 12.6939C142.867 10.6322 142.02 8.73152 141.237 6.99193C140.521 5.25234 139.738 3.25503 138.891 1C135.567 1.96644 132.83 2.73959 130.679 3.31946C128.528 3.89932 126.54 4.44697 124.715 4.9624C122.89 5.41341 121 5.86441 119.044 6.31542C117.154 6.76642 114.808 7.31407 112.005 7.95837L112.103 12.7906L120.609 15.8832L70.6501 140.167C68.7599 141.456 66.4787 142.455 63.8064 143.163C61.1993 143.872 58.2337 144.677 54.9097 145.579V153.504H106.921V145.579L87.0748 141.037L126.279 34.1489C127.127 31.6361 127.941 29.6388 128.723 28.157" stroke="#EBBB0D" stroke-opacity="0.8"/>
<path d="M8.03263 143.228C5.94285 143.936 3.26531 144.708 1.70241e-05 145.544L0 153.504H55.7385V145.544L37.3223 140.526C37.3223 112.459 36 88.5457 40.5 88.5457C45 88.5457 54.0739 91.0274 75.2323 124.219C77.4527 127.564 79.5752 130.813 81.5997 133.965C83.6894 137.053 85.8772 139.883 88.1629 142.456C90.5139 145.029 93.0608 147.216 95.8037 149.018C98.6118 150.819 101.779 152.041 105.306 152.684C107.461 153.134 109.681 153.424 111.967 153.553C114.182 153.504 117.408 153.504 118.698 153.504H126.439H134.181L134.204 149.018C131.265 148.117 128.163 146.637 124.897 144.579C121.697 142.52 118.465 140.076 115.2 137.246C111.934 134.415 108.636 131.263 105.306 127.789C101.975 124.251 98.7424 120.553 95.6078 116.693C93.3874 113.991 91.2976 111.225 89.3384 108.395C87.4445 105.5 85.7139 102.67 84.1466 99.9035C82.5793 97.1374 81.1752 94.5321 79.9344 92.0877C78.7589 89.6432 77.7793 87.5204 76.9956 85.7193C81.8935 84.69 86.4323 82.6959 90.6119 79.7368C94.7914 76.7134 98.4159 73.1111 101.485 68.9298C104.62 64.7485 107.069 60.1813 108.832 55.228C110.595 50.2748 111.477 45.3216 111.477 40.3684C111.477 34.1929 110.432 28.8216 108.342 24.2544C106.253 19.6228 103.347 15.7953 99.6241 12.7719C95.9669 9.7485 91.5588 7.49704 86.3996 6.01751C81.3058 4.47365 75.7221 3.70172 69.6487 3.70172C65.4038 3.70172 61.714 3.76605 58.5793 3.8947C55.51 3.95903 52.7671 4.05552 50.3508 4.18418C47.9345 4.31283 45.7794 4.47365 43.8855 4.66663C42.057 4.85962 40.2611 5.02043 38.4978 5.14909C36.7345 5.27774 34.9386 5.4064 33.1101 5.53505C31.2815 5.59938 29.257 5.63155 27.0366 5.63155H1.70241e-05V13.4473L16.1632 18.5614V126.246C16.1632 129.912 15.9346 132.839 15.4775 135.026C15.0204 137.149 14.1714 138.854 12.9306 140.14C11.7551 141.427 10.1224 142.456 8.03263 143.228Z" fill="#EBBB0D"/>
<path d="M233.612 124.608C235.633 129.762 237.197 133.789 238.305 136.688C237.588 137.977 236.676 139.072 235.568 139.974C234.46 140.812 233.156 141.553 231.657 142.197C230.223 142.841 228.561 143.421 226.671 143.936C224.781 144.452 222.695 145 220.414 145.579V153.504H278.683V145.579L262.454 140.264L263.529 139.877C257.142 124.221 251.504 110.498 246.615 98.7071C241.792 86.8521 237.556 76.5434 233.906 67.781C230.256 59.0186 227.127 51.6092 224.52 45.5529C221.978 39.4965 219.795 34.3744 217.97 30.1865C216.145 25.9986 214.613 22.5516 213.375 19.8456C212.136 17.0751 211.061 14.6912 210.149 12.6939C209.236 10.6322 208.389 8.73152 207.607 6.99193C206.89 5.25234 206.108 3.25503 205.26 1C201.936 1.96644 199.199 2.73959 197.048 3.31946C194.897 3.89932 192.909 4.44697 191.084 4.9624C189.259 5.41341 187.369 5.86441 185.414 6.31542C183.523 6.76642 181.177 7.31407 178.374 7.95837L178.472 12.7906L186.978 15.8832L137.019 140.167C135.129 141.456 132.848 142.455 130.176 143.163C127.568 143.872 124.603 144.677 121.279 145.579V153.504H173.291V145.579L153.444 141.037L166.936 104.216L192.648 34.1489C193.496 31.6361 194.31 29.6388 195.093 28.157" stroke="#EBBB0D" stroke-opacity="0.8"/>
</svg>
