<svg width="278" height="154" viewBox="0 0 278 154" fill="none" xmlns="http://www.w3.org/2000/svg">
<g opacity="1">
<path d="M54.5999 145.951C57.9052 145.041 60.8541 144.228 63.4465 143.512C66.1037 142.797 68.3721 141.789 70.2516 140.488L119.929 15.0244L111.471 11.9024L111.374 7.02439C114.161 6.37398 116.494 5.82113 118.373 5.36585C120.318 4.91057 122.197 4.45528 124.012 4C125.826 3.47967 127.803 2.92683 129.942 2.34146C132.081 1.7561 134.803 0.975609 138.108 0C138.951 2.27642 139.728 4.29268 140.441 6.04878C141.219 7.80487 142.061 9.72357 142.969 11.8049C143.876 13.8211 144.945 16.2276 146.177 19.0244C147.408 21.7561 148.931 25.2358 150.746 29.4634C152.561 33.691 154.732 38.8618 157.259 44.9756C159.852 51.0894 162.963 58.5691 166.592 67.4146C170.222 76.2601 174.434 86.6666 179.23 98.6341C184.091 110.536 189.697 124.39 196.048 140.195L194.979 140.585L211.117 145.951V153.951H153.176V145.951C155.445 145.366 157.519 144.813 159.398 144.293C161.278 143.772 162.93 143.187 164.356 142.536C165.847 141.886 167.143 141.138 168.245 140.293C169.347 139.382 170.254 138.276 170.967 136.976C169.865 134.049 168.31 129.984 166.3 124.78C164.291 119.512 161.634 112.65 158.329 104.195H99.9995L86.5838 141.366L106.319 145.951V153.951H54.5999V145.951ZM158.329 104.195L127.998 27.4146C127.22 28.9105 126.41 30.9268 125.567 33.4634L99.9995 104.195H158.329Z" fill="#EBBB0D"/>
<path d="M1.69282e-05 145.915C3.24691 145.071 5.90936 144.292 7.98737 143.577C10.0654 142.798 11.6888 141.759 12.8577 140.46C14.0915 139.162 14.9357 137.441 15.3903 135.298C15.8448 133.09 16.0721 130.135 16.0721 126.434V17.728L1.69282e-05 12.5655V4.67552H26.8843C29.0922 4.67552 31.1052 4.64305 32.9235 4.57811C34.7417 4.44824 36.5275 4.31836 38.2808 4.18849C40.0342 4.05861 41.82 3.89627 43.6382 3.70145C45.5214 3.50664 47.6644 3.3443 50.0671 3.21442C52.4698 3.08454 55.1971 2.98714 58.2492 2.9222C61.3662 2.79232 65.0352 2.72739 69.2562 2.72739C75.2954 2.72739 80.8476 3.50664 85.9127 5.06515C91.0428 6.55872 95.4261 8.83154 99.0626 11.8836C102.764 14.9357 105.654 18.7995 107.732 23.475C109.81 28.0856 110.849 33.5079 110.849 39.7419C110.849 44.7421 109.972 49.7424 108.219 54.7426C106.466 59.7428 104.03 64.3534 100.913 68.5743C97.8613 72.7953 94.2572 76.4318 90.1012 79.4839C85.9452 82.471 81.432 84.4841 76.5617 85.5231C77.3409 87.3413 78.315 89.4843 79.4839 91.9519C80.7177 94.4196 82.1139 97.0495 83.6724 99.8419C85.2309 102.634 86.9517 105.491 88.8349 108.414C90.7831 111.271 92.8611 114.063 95.069 116.791C98.186 120.687 101.4 124.421 104.712 127.992C108.024 131.499 111.303 134.681 114.55 137.538C117.797 140.396 121.012 142.863 124.194 144.941C127.44 147.019 130.525 148.513 133.447 149.422L133.424 153.951C131.152 153.951 128.519 153.951 125.727 153.951C122.934 153.951 119.954 153.951 118.029 153.951C116.746 153.951 113.539 153.951 111.336 154C109.063 153.87 106.855 153.578 104.712 153.123C101.206 152.474 98.0561 151.24 95.2638 149.422C92.5364 147.604 90.0038 145.396 87.6661 142.798C85.3932 140.201 83.2178 137.343 81.1398 134.226C79.1267 131.044 77.0162 127.765 74.8084 124.388C73.055 121.596 71.3991 118.771 69.8406 115.914C68.3471 112.992 66.8859 110.037 65.4573 107.05C64.0287 103.998 62.6001 100.913 61.1714 97.7963C59.7428 94.6144 58.2492 91.4 56.6907 88.1531C54.353 88.0881 51.6373 87.8207 48.5202 87.561C45.4032 87.3012 41.1287 86.9143 37.112 86.3997V140.85L55.4244 145.915V153.951H0L1.69282e-05 145.915ZM37.112 86.3997C40.5407 87.0467 52.9243 87.8933 56.6907 88.1531C55.2344 85.119 51.5126 80.8943 54.5049 79.8969C58.4947 78.8994 66.2366 76.5617 69.5484 75.7824C72.9252 75.0032 75.9123 73.8992 78.5098 72.4706C80.0034 71.042 81.432 69.451 82.7957 67.6977C84.1594 65.9443 85.3608 63.9313 86.3998 61.6584C87.4388 59.3856 88.2505 56.8206 88.8349 53.9633C89.4843 51.0411 89.809 47.7293 89.809 44.0278C89.809 39.0926 88.9323 34.6768 87.179 30.7805C85.4906 26.8842 83.1204 23.6049 80.0683 20.9424C77.0163 18.2151 73.3797 16.137 69.1588 14.7084C64.9378 13.2798 60.3272 12.5655 55.327 12.5655C51.0411 12.5655 47.6644 12.8902 45.1967 13.5395C42.794 14.124 40.9758 15.2279 39.742 16.8514C38.5731 18.4748 37.8263 20.7152 37.5016 23.5724C37.2418 26.3647 37.112 29.9363 37.112 34.2872V86.3997Z" fill="#EBBB0D"/>
<path d="M120.595 145.951C123.901 145.041 126.849 144.228 129.442 143.512C132.099 142.797 134.367 141.789 136.247 140.488L185.924 15.0244L177.466 11.9024L177.369 7.02439C180.156 6.37398 182.489 5.82113 184.369 5.36585C186.313 4.91057 188.192 4.45528 190.007 4C191.822 3.47967 193.799 2.92683 195.937 2.34146C198.076 1.7561 200.798 0.975609 204.103 0C204.946 2.27642 205.724 4.29268 206.437 6.04878C207.214 7.80487 208.057 9.72357 208.964 11.8049C209.871 13.8211 210.941 16.2276 212.172 19.0244C213.404 21.7561 214.927 25.2358 216.741 29.4634C218.556 33.691 220.727 38.8618 223.255 44.9756C225.847 51.0894 228.958 58.5691 232.587 67.4146C236.217 76.2601 240.43 86.6666 245.226 98.6341C250.086 110.537 255.692 124.39 262.044 140.195L260.974 140.585L277.112 145.951V153.951H219.172V145.951C221.44 145.366 223.514 144.813 225.394 144.293C227.273 143.772 228.926 143.187 230.352 142.536C231.842 141.886 233.138 141.138 234.24 140.293C235.342 139.382 236.249 138.276 236.962 136.976C235.86 134.049 234.305 129.984 232.296 124.78C230.287 119.512 227.63 112.65 224.324 104.195H165.995L152.579 141.366L172.314 145.951V153.951H120.595V145.951ZM224.324 104.195L193.993 27.4146C193.215 28.9105 192.405 30.9268 191.563 33.4634L165.995 104.195H224.324Z" fill="#EBBB0D"/>
</g>
</svg>
